<svg width="32" height="32" viewBox="0 0 32 32" fill="none" xmlns="http://www.w3.org/2000/svg">
<g clip-path="url(#clip0_5303_5308)">
<path d="M26.231 0H5.769C2.58287 0 0 2.58287 0 5.769V26.231C0 29.4171 2.58287 32 5.769 32H26.231C29.4171 32 32 29.4171 32 26.231V5.769C32 2.58287 29.4171 0 26.231 0Z" fill="#00005B"/>
<path d="M11.9917 8.86572C16.158 8.86572 18.5041 10.8173 18.5041 14.0845C18.5041 17.8999 15.3247 19.4347 12.3426 19.4347H10.3253V23.5571H6.24658V8.86572H11.9917ZM10.3253 12.3523V15.9483H12.1233C13.373 15.9483 14.2501 15.444 14.2501 14.1721C14.2501 13.01 13.5047 12.3523 12.2107 12.3523L10.3253 12.3523Z" fill="#9999FF"/>
<path d="M24.3727 11.9136C25.2718 11.9136 25.9954 12.0233 26.3244 12.1329V15.115C26.0614 15.0493 25.5568 15.0055 25.1401 15.0055C24.3288 15.0055 23.8684 15.0712 23.452 15.2247V23.5571H19.6146V12.8785C20.996 12.2645 22.3774 11.9136 24.3727 11.9136Z" fill="#9999FF"/>
</g>
<defs>
<clipPath id="clip0_5303_5308">
<rect width="32" height="32" fill="white"/>
</clipPath>
</defs>
</svg>
