<svg preserveAspectRatio="none" width="100%" height="100%" overflow="visible" style="display: block;" viewBox="0 0 10 10" fill="none" xmlns="http://www.w3.org/2000/svg">
<g id="Frame">
<path id="iconPrimary" d="M9.94946 4.99658C9.94922 4.94458 9.9292 4.89526 9.91992 4.84399C9.90918 4.78564 9.90722 4.72631 9.88476 4.67077C9.88354 4.66796 9.8833 4.66503 9.88207 4.6621C9.85009 4.58568 9.7976 4.52245 9.74633 4.45898C9.72802 4.43603 9.72021 4.40808 9.69921 4.38671L9.69433 4.38171L9.69335 4.38086L6.62401 1.26172C6.28417 0.91602 5.73046 0.91309 5.38671 1.25098C5.04198 1.58985 5.0371 2.14453 5.37597 2.48828L6.98657 4.125H0.9248C0.4414 4.125 0.0498 4.5166 0.0498 5C0.0498 5.4834 0.4414 5.875 0.9248 5.875H6.98657L5.37597 7.51172C5.0371 7.85547 5.04199 8.41016 5.38671 8.74902C5.55663 8.91601 5.77831 9 5.99999 9C6.22655 9 6.45214 8.91309 6.62401 8.73828L9.69335 5.61914L9.69433 5.61829L9.69921 5.61329C9.72021 5.59193 9.72802 5.56397 9.74633 5.54102C9.7976 5.47754 9.85009 5.41431 9.88207 5.3379C9.88329 5.33497 9.88353 5.33204 9.88476 5.32923C9.90722 5.27369 9.90917 5.21436 9.91992 5.15601C9.9292 5.10474 9.94922 5.05542 9.94946 5.00342L9.95019 5L9.94946 4.99658Z" fill="var(--fill-0, #292929)"/>
</g>
</svg>
