<svg preserveAspectRatio="none" width="100%" height="100%" overflow="visible" style="display: block;" viewBox="0 0 12 12" fill="none" xmlns="http://www.w3.org/2000/svg">
<g id="Frame" clip-path="url(#clip0_5575_51094)">
<g id="S2_Arrow">
<g id="Frame_2">
<path id="iconPrimary" d="M11.9394 5.9959C11.9391 5.9335 11.915 5.87431 11.9039 5.81279C11.891 5.74277 11.8887 5.67157 11.8617 5.60492C11.8602 5.60155 11.86 5.59804 11.8585 5.59452C11.8201 5.50282 11.7571 5.42694 11.6956 5.35078C11.6736 5.32324 11.6643 5.2897 11.6391 5.26405L11.6332 5.25805L11.632 5.25703L7.94881 1.51406C7.541 1.09922 6.87655 1.09571 6.46405 1.50118C6.05038 1.90782 6.04452 2.57344 6.45116 2.98594L8.38388 4.95H1.10976C0.52968 4.95 0.05976 5.41992 0.05976 6C0.05976 6.58008 0.52968 7.05 1.10976 7.05H8.38388L6.45116 9.01406C6.04452 9.42656 6.05039 10.0922 6.46405 10.4988C6.66796 10.6992 6.93397 10.8 7.19999 10.8C7.47186 10.8 7.74257 10.6957 7.94881 10.4859L11.632 6.74297L11.6332 6.74195L11.6391 6.73595C11.6643 6.71032 11.6736 6.67676 11.6956 6.64922C11.7571 6.57305 11.8201 6.49717 11.8585 6.40548C11.8599 6.40196 11.8602 6.39845 11.8617 6.39508C11.8887 6.32843 11.891 6.25723 11.9039 6.18721C11.915 6.12569 11.9391 6.0665 11.9394 6.0041L11.9402 6L11.9394 5.9959Z" fill="var(--fill-0, #292929)"/>
</g>
</g>
</g>
<defs>
<clipPath id="clip0_5575_51094">
<rect width="12" height="12" fill="white"/>
</clipPath>
</defs>
</svg>
