<svg width="16" height="15" viewBox="0 0 16 15" fill="none" xmlns="http://www.w3.org/2000/svg">
<path d="M15.6485 7.1065C15.6482 6.81199 15.4769 6.54406 15.2059 6.42356L1.05752 0.0658185C0.801331 -0.0495015 0.501291 -0.0111716 0.281711 0.164218C0.0617815 0.340648 -0.0411083 0.624458 0.0151617 0.900328L1.28678 7.14103L0.0648815 13.3714C0.0162015 13.6182 0.0949215 13.871 0.270312 14.0464C0.290682 14.0667 0.312782 14.0861 0.335222 14.1044C0.556192 14.2784 0.855192 14.315 1.11069 14.199L15.2086 7.79081C15.4773 7.66859 15.6489 7.40101 15.6485 7.1065ZM11.406 6.36016L2.66439 6.38679L1.77705 2.03384L11.406 6.36016ZM1.81711 12.2303L2.6694 7.88594L11.4323 7.85935L1.81711 12.2303Z" fill="#292929"/>
</svg>
