<svg preserveAspectRatio="none" width="100%" height="100%" overflow="visible" style="display: block;" viewBox="0 0 49.7436 13" fill="none" xmlns="http://www.w3.org/2000/svg">
<path id="Vector" d="M21.4746 8.6676L20.9387 10.3294C20.9163 10.3854 20.8828 10.4191 20.8158 10.4191H19.5206C19.4424 10.4191 19.4201 10.3742 19.4313 10.307L21.6672 3.83359C21.7119 3.71028 21.7566 3.57577 21.7789 3.14982C21.7789 3.10498 21.8124 3.07135 21.8459 3.07135H23.6352C23.691 3.07135 23.7134 3.08256 23.7245 3.13861L26.262 10.3182C26.2843 10.3742 26.2731 10.4191 26.2061 10.4191H24.7518C24.6848 10.4191 24.6513 10.3966 24.629 10.3406L24.0595 8.6676H21.4746ZM23.6436 7.26363C23.4203 6.52382 22.9736 5.16469 22.7615 4.36883H22.7503C22.5717 5.11985 22.1697 6.35568 21.8794 7.26363H23.6436ZM26.435 7.67838C26.435 6.07265 27.6298 4.72753 29.6759 4.72753C29.7652 4.72753 29.8769 4.73874 30.0444 4.74995V2.54171C30.0444 2.48566 30.0779 2.46325 30.1225 2.46325H31.5294C31.5852 2.46325 31.5964 2.48567 31.5964 2.5305V9.16081C31.5964 9.41862 31.6076 9.7549 31.6411 9.97909C31.6411 10.0351 31.6299 10.0576 31.5629 10.08C30.7925 10.405 30.0527 10.5283 29.3605 10.5283C27.7107 10.5283 26.435 9.58676 26.435 7.67838ZM30.0444 6.08666C29.9327 6.04182 29.7876 6.03061 29.6312 6.03061C28.7715 6.03061 28.0317 6.55745 28.0317 7.60272C28.0317 8.71244 28.6682 9.19724 29.5196 9.19724C29.7094 9.19724 29.888 9.18603 30.0444 9.12999V6.08666ZM38 7.59991C38 9.36258 36.8611 10.5283 35.2504 10.5283C33.3383 10.5283 32.4897 9.07954 32.4897 7.63354C32.4897 6.03902 33.5504 4.72753 35.2728 4.72753C37.0732 4.72753 38 6.08666 38 7.59991ZM34.0668 7.61112C34.0668 8.59754 34.5246 9.22807 35.2728 9.22807C35.9204 9.22807 36.4117 8.6676 36.4117 7.63354C36.4117 6.75922 36.0544 6.02781 35.2058 6.02781C34.5581 6.03061 34.0668 6.61349 34.0668 7.61112ZM40.3504 2.46325C40.4397 2.46325 40.4621 2.47446 40.4621 2.55292V4.85363C40.7524 4.77517 41.065 4.73033 41.4 4.73033C43.0441 4.73033 44.0826 5.8961 44.0826 7.40095C44.0826 9.49989 42.4272 10.5311 40.73 10.5311C40.1382 10.5311 39.5465 10.4527 38.9742 10.2733C38.9407 10.2621 38.9072 10.2061 38.9072 10.1612V2.54171C38.9072 2.48566 38.9296 2.46325 38.9854 2.46325H40.3504ZM41.1208 6.05303C40.7635 6.05303 40.6072 6.10908 40.4621 6.1427V9.18323C40.596 9.21686 40.7412 9.22807 40.8752 9.22807C41.7238 9.22807 42.497 8.71244 42.497 7.54387C42.4942 6.52382 41.9024 6.05303 41.1208 6.05303ZM46.2683 8.03708C46.3241 8.67601 46.7707 9.20285 47.8678 9.20285C48.3702 9.20285 48.8169 9.12438 49.2412 8.94503C49.2747 8.92261 49.3082 8.93382 49.3082 9.00108V10.066C49.3082 10.1444 49.2858 10.1781 49.23 10.2005C48.7834 10.4135 48.2921 10.5255 47.5188 10.5255C45.4169 10.5255 44.6799 9.07674 44.6799 7.68679C44.6799 6.1371 45.629 4.72473 47.3848 4.72473C49.0737 4.72473 49.7436 6.03621 49.7436 7.14874C49.7436 7.49623 49.7213 7.77646 49.6878 7.89976C49.6766 7.95581 49.6543 7.97823 49.5985 7.98944C49.4533 8.01186 49.029 8.03427 48.4484 8.03427H46.2683V8.03708ZM47.7198 6.94977C48.0771 6.94977 48.2334 6.93856 48.2781 6.92736C48.2781 6.90494 48.2781 6.8601 48.2781 6.84889C48.2781 6.57987 48.066 5.96335 47.329 5.96335C46.6256 5.96335 46.3241 6.49019 46.2571 6.94977H47.7198ZM9.22295 0H14.63V13M5.41262 0H0V13M7.31639 4.78918L10.7638 12.9972H8.50555L7.4755 10.3854H4.95203" fill="var(--fill-0, white)" fill-opacity="0.64"/>
</svg>
