<svg preserveAspectRatio="none" width="100%" height="100%" overflow="visible" style="display: block;" viewBox="0 0 7 8" fill="none" xmlns="http://www.w3.org/2000/svg">
<g id="Vector">
<path d="M2.9461 5.61481C2.98953 5.60021 3.03217 5.583 3.07383 5.56326C3.77874 5.16368 4.48218 4.76409 5.18413 4.3645C5.51734 4.1739 5.53289 3.82866 5.20524 3.62367C4.53882 3.2077 3.87241 2.80372 3.206 2.39254C2.85502 2.17557 2.50738 1.9514 2.15751 1.73323C1.94759 1.60256 1.73767 1.47429 1.52553 1.34962C1.19232 1.15303 0.937976 1.29688 0.899102 1.70925C0.896968 1.74918 0.896968 1.7892 0.899102 1.82913C0.899102 3.24126 0.899102 4.6534 0.899102 6.06554C0.897639 6.17347 0.911497 6.28101 0.940197 6.38441C1.00795 6.61697 1.18677 6.69489 1.3978 6.59899C1.45511 6.57034 1.51505 6.54824 1.57662 6.53306C1.6464 6.51473 1.71968 6.51958 1.78686 6.54695C1.85405 6.57433 1.912 6.62297 1.95314 6.6865C2.00083 6.75084 2.02933 6.82927 2.03488 6.91145C2.04043 6.99363 2.02278 7.07569 1.98424 7.14682C1.93036 7.25328 1.85432 7.34479 1.76211 7.41415C1.49221 7.59156 1.20676 7.7462 0.931312 7.91043C0.767061 7.99295 0.583364 8.0193 0.404846 7.98595C0.333651 7.97559 0.266605 7.94378 0.211401 7.89417C0.156196 7.84455 0.11507 7.77914 0.0927427 7.70544C0.0393229 7.57399 0.00918473 7.4329 0.00388741 7.28948C-0.0012958 5.10534 -0.0012958 2.9216 0.00388741 0.738255C0.00388741 0.378627 0.226025 0.0489686 0.494812 0.0130058C0.715552 -0.0238875 0.941413 0.0182146 1.1379 0.132882C1.82653 0.547653 2.51626 0.958827 3.20711 1.36641C4.22006 1.96579 5.23522 2.56516 6.24595 3.16454C6.4482 3.27855 6.63785 3.41689 6.81129 3.57692C7.07674 3.83705 7.05897 4.1763 6.77797 4.42444C6.61287 4.55997 6.43751 4.68027 6.25373 4.78407C5.82833 5.0406 5.39739 5.28755 4.96866 5.53809C4.29003 5.93368 3.61251 6.33287 2.93277 6.72486C2.85161 6.76718 2.76196 6.78699 2.67192 6.7825C2.58189 6.77801 2.49431 6.74935 2.41712 6.69913C2.33993 6.6489 2.27556 6.57869 2.22984 6.49486C2.18413 6.41102 2.1585 6.3162 2.15529 6.21898C2.15529 5.53329 2.15529 4.8476 2.15529 4.16191C2.15325 4.06177 2.18363 3.96399 2.24121 3.88544C2.29879 3.80688 2.37996 3.75246 2.47072 3.73156C2.56129 3.71384 2.65475 3.7301 2.73557 3.77764C2.81639 3.82518 2.87971 3.90114 2.915 3.99289C2.93354 4.04775 2.94221 4.10594 2.94054 4.16431C2.94054 4.59706 2.94054 5.03101 2.94054 5.46377L2.9461 5.61481Z" fill="var(--fill-0, white)" fill-opacity="0.64"/>
<path d="M2.1564 3.03987C2.15492 2.98146 2.16427 2.92331 2.18389 2.86885C2.20352 2.81438 2.23303 2.7647 2.27069 2.72271C2.30835 2.68072 2.3534 2.64728 2.4032 2.62434C2.453 2.60141 2.50655 2.58944 2.56069 2.58914C2.67222 2.58621 2.78035 2.63068 2.86179 2.71297C2.94322 2.79526 2.99145 2.90878 2.99608 3.02908C2.99243 3.14768 2.94693 3.26028 2.86888 3.34385C2.79083 3.42741 2.68614 3.47563 2.57624 3.47862C2.46683 3.47991 2.36136 3.43455 2.28275 3.3524C2.20414 3.27025 2.15873 3.15794 2.1564 3.03987Z" fill="var(--fill-0, white)" fill-opacity="0.64"/>
</g>
</svg>
