<svg preserveAspectRatio="none" width="100%" height="100%" overflow="visible" style="display: block;" viewBox="0 0 1328 318.222" fill="none" xmlns="http://www.w3.org/2000/svg">
<path id="Vector" d="M128.954 9.16773H219.242L346.757 313.537H251.327L170.705 111.439L117.437 244.065H180.782L206.08 313.537H0L128.954 9.16773ZM453.087 72.3232C462.342 72.3232 472.42 73.1381 482.498 75.5829V0.203713H562.297V300.091C543.993 308.24 504.504 318.222 465.016 318.222C393.443 318.222 331.949 277.884 331.949 197.412C331.949 116.94 391.181 72.527 453.087 72.527V72.3232ZM463.165 253.029C470.569 253.029 476.533 251.603 482.498 249.77V139.35C476.533 137.109 470.569 136.09 462.754 136.09C436.634 136.09 412.365 155.24 412.365 195.578C412.365 235.916 437.045 252.826 463.165 252.826V253.029ZM704.414 72.3232C770.845 72.3232 827.403 116.736 827.403 194.967C827.403 273.198 771.05 317.611 704.414 317.611C637.777 317.611 581.013 273.198 581.013 194.967C581.013 116.736 636.955 72.3232 704.414 72.3232ZM704.414 251.807C727.243 251.807 748.427 233.675 748.427 194.967C748.427 156.259 727.243 138.127 704.414 138.127C681.585 138.127 660.812 156.259 660.812 194.967C660.812 233.675 680.556 251.807 704.414 251.807ZM846.531 0.203713H926.741V75.5829C936.408 73.7493 946.485 72.3232 956.563 72.3232C1018.88 72.3232 1076.67 112.661 1076.67 191.708C1076.67 275.236 1015.18 317.611 942.372 317.611C911.11 317.611 871.211 311.296 846.531 299.887V0V0.203713ZM944.223 252.622C971.783 252.622 996.874 233.064 996.874 192.726C996.874 155.037 972.194 137.312 945.457 137.312C938.053 137.312 932.089 138.127 926.741 140.572V249.566C931.266 251.4 937.23 252.826 944.223 252.826V252.622ZM1212.83 72.3232C1272.88 72.3232 1328 110.42 1328 187.225C1328 197.616 1327.59 207.598 1326.15 217.581H1176.63C1184.85 244.473 1208.71 257.104 1238.53 257.104C1262.8 257.104 1285.22 251.196 1310.52 240.398V300.905C1287.07 312.722 1259.1 317.611 1230.31 317.611C1154.21 317.611 1094.98 272.18 1094.98 194.967C1094.98 117.754 1148.66 72.3232 1212.83 72.3232ZM1253.14 168.075C1249.02 142.202 1231.54 131.812 1213.65 131.812C1195.76 131.812 1181.15 142.813 1175.19 168.075H1253.14Z" fill="var(--fill-0, white)"/>
</svg>
