<svg width="32" height="31" viewBox="0 0 32 31" fill="none" xmlns="http://www.w3.org/2000/svg">
<path d="M5.65714 0H26.3429C29.4857 0 32 2.51429 32 5.65714V25.2C32 28.3429 29.4857 30.8571 26.3429 30.8571H5.65714C2.51429 30.8571 0 28.3429 0 25.2V5.65714C0 2.51429 2.51429 0 5.65714 0Z" fill="#B30B00"/>
<path d="M25.7143 17.8286C24.2286 16.2858 20.1714 16.9144 19.2 17.0286C17.7714 15.6572 16.8 14.0001 16.4572 13.4286C16.9714 11.8858 17.3143 10.3429 17.3714 8.68578C17.3714 7.25721 16.8 5.71436 15.2 5.71436C14.6286 5.71436 14.1143 6.05721 13.8286 6.51436C13.1429 7.71436 13.4286 10.1144 14.5143 12.5715C13.8857 14.3429 13.3143 16.0572 11.7143 19.0858C10.0572 19.7715 6.57145 21.3715 6.28573 23.0858C6.17145 23.6001 6.34288 24.1144 6.74288 24.5144C7.14288 24.8572 7.65716 25.0286 8.17145 25.0286C10.2857 25.0286 12.3429 22.1144 13.7714 19.6572C14.9714 19.2572 16.8572 18.6858 18.7429 18.3429C20.9714 20.2858 22.9143 20.5715 23.9429 20.5715C25.3143 20.5715 25.8286 20.0001 26 19.4858C26.2857 18.9144 26.1143 18.2858 25.7143 17.8286ZM24.2857 18.8001C24.2286 19.2001 23.7143 19.6001 22.8 19.3715C21.7143 19.0858 20.7429 18.5715 19.8857 17.8858C20.6286 17.7715 22.2857 17.6001 23.4857 17.8286C23.9429 17.9429 24.4 18.2286 24.2857 18.8001ZM14.7429 7.02864C14.8572 6.85721 15.0286 6.74293 15.2 6.74293C15.7143 6.74293 15.8286 7.3715 15.8286 7.88578C15.7714 9.08578 15.5429 10.2858 15.1429 11.4286C14.2857 9.14293 14.4572 7.54293 14.7429 7.02864ZM14.6286 18.1144C15.0857 17.2001 15.7143 15.6001 15.9429 14.9144C16.4572 15.7715 17.3143 16.8001 17.7714 17.2572C17.7714 17.3144 16 17.6572 14.6286 18.1144ZM11.2572 20.4001C9.94288 22.5715 8.57145 23.9429 7.82859 23.9429C7.7143 23.9429 7.60002 23.8858 7.48573 23.8286C7.31431 23.7144 7.25716 23.5429 7.31431 23.3144C7.48573 22.5144 8.97145 21.4286 11.2572 20.4001Z" fill="white"/>
</svg>
