<svg width="32" height="31" viewBox="0 0 32 31" fill="none" xmlns="http://www.w3.org/2000/svg">
<path d="M26.335 0H5.66505C2.53633 0 0 2.53633 0 5.66505V25.1921C0 28.3208 2.53633 30.8571 5.66505 30.8571H26.335C29.4637 30.8571 32 28.3208 32 25.1921V5.66505C32 2.53633 29.4637 0 26.335 0Z" fill="#EB1000"/>
<path d="M24.8098 23.4287H21.083C20.9211 23.4317 20.7619 23.3861 20.6258 23.2978C20.4897 23.2095 20.3828 23.0825 20.3187 22.9328L16.2728 13.4126C16.2622 13.3755 16.2401 13.3428 16.2096 13.3194C16.1792 13.296 16.142 13.2831 16.1037 13.2826C16.0654 13.2821 16.028 13.2941 15.9969 13.3167C15.9659 13.3393 15.9429 13.3713 15.9314 13.4081L13.41 19.4527C13.3963 19.4854 13.3909 19.521 13.3942 19.5563C13.3975 19.5917 13.4094 19.6256 13.4289 19.6552C13.4484 19.6847 13.4749 19.709 13.5059 19.7258C13.537 19.7425 13.5717 19.7513 13.607 19.7513H16.3785C16.4624 19.7513 16.5445 19.7762 16.6145 19.8228C16.6845 19.8695 16.7393 19.9359 16.772 20.0137L17.9854 22.7312C18.0176 22.8074 18.0305 22.8905 18.023 22.973C18.0154 23.0555 17.9877 23.1348 17.9423 23.2039C17.8969 23.273 17.8352 23.3297 17.7627 23.3689C17.6902 23.4081 17.6092 23.4287 17.5269 23.4287H7.43723C7.36134 23.4283 7.28674 23.4089 7.22008 23.3724C7.15343 23.3359 7.09678 23.2834 7.05519 23.2195C7.01361 23.1556 6.98837 23.0824 6.98174 23.0063C6.97511 22.9302 6.98728 22.8536 7.01718 22.7835L13.435 7.40269C13.5005 7.2399 13.6134 7.1008 13.7587 7.00354C13.9041 6.90628 14.0752 6.85538 14.2497 6.8575H17.9513C18.1259 6.85517 18.2972 6.90598 18.4426 7.00327C18.588 7.10055 18.7008 7.23977 18.7662 7.40269L25.2284 22.7835C25.2583 22.8535 25.2705 22.93 25.264 23.0059C25.2574 23.0819 25.2323 23.1551 25.1909 23.219C25.1495 23.2828 25.093 23.3354 25.0265 23.372C24.96 23.4086 24.8856 23.4281 24.8098 23.4287Z" fill="white"/>
</svg>
