<svg width="32" height="32" viewBox="0 0 32 32" fill="none" xmlns="http://www.w3.org/2000/svg">
<g clip-path="url(#clip0_5303_5303)">
<path d="M26.2281 0H5.77185C2.58415 0 0 2.58415 0 5.77185V26.2281C0 29.4159 2.58415 32 5.77185 32H26.2281C29.4159 32 32 29.4159 32 26.2281V5.77185C32 2.58415 29.4159 0 26.2281 0Z" fill="#001E36"/>
<path d="M11.5611 8.86572C15.727 8.86572 18.0737 10.8154 18.0737 14.0865C18.0737 17.9028 14.8914 19.4376 11.9107 19.4376H9.89589V23.562H5.81885V8.86572H11.567H11.5611ZM9.89589 12.3502V15.9472H11.6914C12.9418 15.9472 13.8188 15.4435 13.8188 14.1694C13.8188 13.0079 13.0722 12.3502 11.7803 12.3502H9.89589Z" fill="#31A8FF"/>
<path d="M19.0811 22.833L19.1048 19.4316C20.2663 20.2019 21.89 20.6819 23.01 20.6819C23.7744 20.6819 24.13 20.4627 24.13 20.0656C24.13 19.6271 23.65 19.4493 22.7255 19.1649C20.9478 18.6375 18.9981 17.9145 18.9981 15.5916C18.9981 13.2686 20.9478 11.9056 23.7804 11.9056C25.1196 11.9056 26.2159 12.1012 27.1818 12.5219L27.1581 15.7693C26.3937 15.3071 24.8767 14.8923 23.893 14.8923C23.17 14.8923 22.8855 15.1116 22.8855 15.4434C22.8855 15.8404 23.2352 15.9471 24.29 16.279C26.3285 16.8953 28.0411 17.553 28.0411 19.9412C28.0411 22.3293 26.1744 23.7575 23.2589 23.7575C21.7241 23.7575 20.2781 23.4967 19.093 22.839L19.0811 22.833Z" fill="#31A8FF"/>
</g>
<defs>
<clipPath id="clip0_5303_5303">
<rect width="32" height="32" fill="white"/>
</clipPath>
</defs>
</svg>
