<svg width="32" height="32" viewBox="0 0 32 32" fill="none" xmlns="http://www.w3.org/2000/svg">
<g clip-path="url(#clip0_5303_5334)">
<path d="M26.231 0H5.769C2.58287 0 0 2.58287 0 5.769V26.231C0 29.4171 2.58287 32 5.769 32H26.231C29.4171 32 32 29.4171 32 26.231V5.769C32 2.58287 29.4171 0 26.231 0Z" fill="#330000"/>
<path d="M10.4488 8.86712H15.1412L20.404 23.5585H16.1062L15.3825 21.322H9.87878L9.15511 23.5585H5.03271L10.4488 8.86712ZM14.2425 17.8354L12.6418 12.9018L11.0411 17.8354H14.2425Z" fill="#FF9A00"/>
<path d="M21.2008 9.83196C21.2008 8.77944 22.0122 8.09961 23.2402 8.09961C24.4462 8.09961 25.2136 8.80129 25.2136 9.83196C25.2136 10.8845 24.4462 11.608 23.2402 11.608C21.9682 11.608 21.2008 10.9063 21.2008 9.83196ZM21.3105 12.1123H25.1479V23.5585H21.3105V12.1123Z" fill="#FF9A00"/>
</g>
<defs>
<clipPath id="clip0_5303_5334">
<rect width="32" height="32" fill="white"/>
</clipPath>
</defs>
</svg>
