<svg width="32" height="32" viewBox="0 0 32 32" fill="none" xmlns="http://www.w3.org/2000/svg">
<g clip-path="url(#clip0_5303_5293)">
<path d="M26.231 0H5.769C2.58287 0 0 2.58287 0 5.769V26.231C0 29.4171 2.58287 32 5.769 32H26.231C29.4171 32 32 29.4171 32 26.231V5.769C32 2.58287 29.4171 0 26.231 0Z" fill="#EB1000"/>
<path d="M18.4494 12.3551H11.8053V14.8765H17.6814V18.3632H11.8053V23.56H7.72656V8.86844H18.4494V12.3551Z" fill="white"/>
<path d="M23.9957 23.5588H20.1583V12.1127H23.9957V23.5588Z" fill="white"/>
<path d="M23.1965 5.94541C23.6019 5.57232 24.2464 5.94404 24.1253 6.47955L23.8174 7.8424C23.777 8.02269 23.8277 8.20975 23.9523 8.34529L24.9019 9.37191C25.2758 9.77641 24.9029 10.4193 24.366 10.2984L22.9997 9.9917C22.8189 9.9514 22.6316 10.0017 22.4957 10.126L21.4661 11.0727C21.0606 11.4458 20.4162 11.0741 20.5373 10.5386L20.8452 9.17573C20.8856 8.9954 20.835 8.80839 20.7104 8.67284L19.7607 7.64622C19.3869 7.24176 19.7598 6.59896 20.2966 6.71971L21.6629 7.02643C21.8437 7.06676 22.0316 7.01655 22.1675 6.89217L23.1965 5.94541Z" fill="white"/>
</g>
<defs>
<clipPath id="clip0_5303_5293">
<rect width="32" height="32" fill="white"/>
</clipPath>
</defs>
</svg>
